<mxfile host="app.diagrams.net" modified="2021-05-18T11:28:26.295Z" agent="5.0 (Macintosh; Intel Mac OS X 10_13_4) AppleWebKit/537.36 (KHTML, like Gecko) Chrome/89.0.4389.114 Safari/537.36" etag="6OilbxqvZ7mlzzu3fo9m" version="14.6.12" type="github">
  <diagram id="xAj5lVq52wqTT3INtTwC" name="Page-1">
    <mxGraphModel dx="946" dy="533" grid="1" gridSize="10" guides="1" tooltips="1" connect="1" arrows="1" fold="1" page="1" pageScale="1" pageWidth="827" pageHeight="1169" math="0" shadow="0">
      <root>
        <mxCell id="0" />
        <mxCell id="1" parent="0" />
        <mxCell id="dkxZgwjoW6DD-DiOGa8r-29" value="" style="html=1;dashed=0;whitespace=wrap;fillColor=#f5f5f5;strokeColor=#666666;fontColor=#333333;" vertex="1" parent="1">
          <mxGeometry x="200" y="300" width="470" height="120" as="geometry" />
        </mxCell>
        <mxCell id="dkxZgwjoW6DD-DiOGa8r-67" style="edgeStyle=orthogonalEdgeStyle;rounded=0;orthogonalLoop=1;jettySize=auto;html=1;entryX=0;entryY=0.5;entryDx=0;entryDy=0;" edge="1" parent="1" source="dkxZgwjoW6DD-DiOGa8r-32" target="dkxZgwjoW6DD-DiOGa8r-39">
          <mxGeometry relative="1" as="geometry" />
        </mxCell>
        <mxCell id="dkxZgwjoW6DD-DiOGa8r-32" value="" style="html=1;dashed=0;whitespace=wrap;fillColor=#dae8fc;strokeColor=#6c8ebf;" vertex="1" parent="1">
          <mxGeometry x="413.5" y="320" width="226.5" height="90" as="geometry" />
        </mxCell>
        <mxCell id="dkxZgwjoW6DD-DiOGa8r-44" style="edgeStyle=orthogonalEdgeStyle;rounded=0;orthogonalLoop=1;jettySize=auto;html=1;" edge="1" parent="1" source="dkxZgwjoW6DD-DiOGa8r-17" target="dkxZgwjoW6DD-DiOGa8r-35">
          <mxGeometry relative="1" as="geometry" />
        </mxCell>
        <mxCell id="dkxZgwjoW6DD-DiOGa8r-64" value="数据底&lt;br&gt;池选取" style="edgeLabel;html=1;align=center;verticalAlign=middle;resizable=0;points=[];" vertex="1" connectable="0" parent="dkxZgwjoW6DD-DiOGa8r-44">
          <mxGeometry x="-0.3667" y="2" relative="1" as="geometry">
            <mxPoint x="11" y="2" as="offset" />
          </mxGeometry>
        </mxCell>
        <mxCell id="dkxZgwjoW6DD-DiOGa8r-17" value="选投" style="html=1;dashed=0;whitespace=wrap;fillColor=#f8cecc;strokeColor=#b85450;" vertex="1" parent="1">
          <mxGeometry x="220" y="60" width="100" height="50" as="geometry" />
        </mxCell>
        <mxCell id="dkxZgwjoW6DD-DiOGa8r-53" style="edgeStyle=orthogonalEdgeStyle;rounded=0;orthogonalLoop=1;jettySize=auto;html=1;entryX=0.5;entryY=0;entryDx=0;entryDy=0;" edge="1" parent="1" source="dkxZgwjoW6DD-DiOGa8r-18" target="dkxZgwjoW6DD-DiOGa8r-22">
          <mxGeometry relative="1" as="geometry">
            <Array as="points">
              <mxPoint x="270" y="270" />
              <mxPoint x="350" y="270" />
            </Array>
          </mxGeometry>
        </mxCell>
        <mxCell id="dkxZgwjoW6DD-DiOGa8r-62" value="赛马" style="edgeLabel;html=1;align=center;verticalAlign=middle;resizable=0;points=[];" vertex="1" connectable="0" parent="dkxZgwjoW6DD-DiOGa8r-53">
          <mxGeometry x="0.5613" y="1" relative="1" as="geometry">
            <mxPoint as="offset" />
          </mxGeometry>
        </mxCell>
        <mxCell id="dkxZgwjoW6DD-DiOGa8r-55" style="edgeStyle=orthogonalEdgeStyle;rounded=0;orthogonalLoop=1;jettySize=auto;html=1;" edge="1" parent="1" source="dkxZgwjoW6DD-DiOGa8r-18" target="dkxZgwjoW6DD-DiOGa8r-21">
          <mxGeometry relative="1" as="geometry" />
        </mxCell>
        <mxCell id="dkxZgwjoW6DD-DiOGa8r-56" value="随机" style="edgeLabel;html=1;align=center;verticalAlign=middle;resizable=0;points=[];" vertex="1" connectable="0" parent="dkxZgwjoW6DD-DiOGa8r-55">
          <mxGeometry x="0.0133" relative="1" as="geometry">
            <mxPoint as="offset" />
          </mxGeometry>
        </mxCell>
        <mxCell id="dkxZgwjoW6DD-DiOGa8r-58" style="edgeStyle=orthogonalEdgeStyle;rounded=0;orthogonalLoop=1;jettySize=auto;html=1;entryX=0.382;entryY=0;entryDx=0;entryDy=0;entryPerimeter=0;" edge="1" parent="1" source="dkxZgwjoW6DD-DiOGa8r-18" target="dkxZgwjoW6DD-DiOGa8r-32">
          <mxGeometry relative="1" as="geometry">
            <Array as="points">
              <mxPoint x="270" y="270" />
              <mxPoint x="500" y="270" />
            </Array>
          </mxGeometry>
        </mxCell>
        <mxCell id="dkxZgwjoW6DD-DiOGa8r-63" value="个性化" style="edgeLabel;html=1;align=center;verticalAlign=middle;resizable=0;points=[];" vertex="1" connectable="0" parent="dkxZgwjoW6DD-DiOGa8r-58">
          <mxGeometry x="0.7867" relative="1" as="geometry">
            <mxPoint as="offset" />
          </mxGeometry>
        </mxCell>
        <mxCell id="dkxZgwjoW6DD-DiOGa8r-18" value="数据任务" style="html=1;dashed=0;whitespace=wrap;fillColor=#f8cecc;strokeColor=#b85450;" vertex="1" parent="1">
          <mxGeometry x="220" y="200" width="100" height="50" as="geometry" />
        </mxCell>
        <mxCell id="dkxZgwjoW6DD-DiOGa8r-19" value="DII（&lt;font style=&quot;font-size: 11px&quot;&gt;个性化底池&lt;/font&gt;）" style="shape=cylinder;whiteSpace=wrap;html=1;boundedLbl=1;backgroundOutline=1;fillColor=#fff2cc;strokeColor=#d6b656;" vertex="1" parent="1">
          <mxGeometry x="430" y="325" width="60" height="80" as="geometry" />
        </mxCell>
        <mxCell id="dkxZgwjoW6DD-DiOGa8r-20" value="IGraph（个性化底池）" style="shape=cylinder;whiteSpace=wrap;html=1;boundedLbl=1;backgroundOutline=1;fillColor=#fff2cc;strokeColor=#d6b656;" vertex="1" parent="1">
          <mxGeometry x="520" y="325" width="60" height="80" as="geometry" />
        </mxCell>
        <mxCell id="dkxZgwjoW6DD-DiOGa8r-21" value="Tair（随机底池）" style="shape=cylinder;whiteSpace=wrap;html=1;boundedLbl=1;backgroundOutline=1;fillColor=#fff2cc;strokeColor=#d6b656;" vertex="1" parent="1">
          <mxGeometry x="240" y="325" width="60" height="80" as="geometry" />
        </mxCell>
        <mxCell id="dkxZgwjoW6DD-DiOGa8r-22" value="IGraph（赛马底池）" style="shape=cylinder;whiteSpace=wrap;html=1;boundedLbl=1;backgroundOutline=1;fillColor=#fff2cc;strokeColor=#d6b656;" vertex="1" parent="1">
          <mxGeometry x="320" y="325" width="60" height="80" as="geometry" />
        </mxCell>
        <mxCell id="dkxZgwjoW6DD-DiOGa8r-23" value="" style="endArrow=classic;html=1;" edge="1" parent="1" source="dkxZgwjoW6DD-DiOGa8r-17" target="dkxZgwjoW6DD-DiOGa8r-18">
          <mxGeometry width="50" height="50" relative="1" as="geometry">
            <mxPoint x="170" y="230" as="sourcePoint" />
            <mxPoint x="220" y="180" as="targetPoint" />
          </mxGeometry>
        </mxCell>
        <mxCell id="dkxZgwjoW6DD-DiOGa8r-24" value="选品ID，投放配置" style="edgeLabel;html=1;align=center;verticalAlign=middle;resizable=0;points=[];" vertex="1" connectable="0" parent="dkxZgwjoW6DD-DiOGa8r-23">
          <mxGeometry x="-0.1" relative="1" as="geometry">
            <mxPoint as="offset" />
          </mxGeometry>
        </mxCell>
        <mxCell id="dkxZgwjoW6DD-DiOGa8r-30" value="数据&lt;br&gt;底池" style="text;html=1;align=center;verticalAlign=middle;resizable=0;points=[];autosize=1;strokeColor=none;" vertex="1" parent="1">
          <mxGeometry x="200" y="350" width="40" height="30" as="geometry" />
        </mxCell>
        <mxCell id="dkxZgwjoW6DD-DiOGa8r-33" value="个性化&lt;br&gt;底池" style="text;html=1;align=center;verticalAlign=middle;resizable=0;points=[];autosize=1;strokeColor=none;" vertex="1" parent="1">
          <mxGeometry x="590" y="350" width="50" height="30" as="geometry" />
        </mxCell>
        <mxCell id="dkxZgwjoW6DD-DiOGa8r-49" style="edgeStyle=orthogonalEdgeStyle;rounded=0;orthogonalLoop=1;jettySize=auto;html=1;" edge="1" parent="1" source="dkxZgwjoW6DD-DiOGa8r-35" target="dkxZgwjoW6DD-DiOGa8r-48">
          <mxGeometry relative="1" as="geometry">
            <mxPoint x="425" y="170" as="targetPoint" />
          </mxGeometry>
        </mxCell>
        <mxCell id="dkxZgwjoW6DD-DiOGa8r-35" value="投放方案" style="html=1;dashed=0;whitespace=wrap;fillColor=#f8cecc;strokeColor=#b85450;" vertex="1" parent="1">
          <mxGeometry x="380" y="60" width="100" height="50" as="geometry" />
        </mxCell>
        <mxCell id="dkxZgwjoW6DD-DiOGa8r-68" style="edgeStyle=orthogonalEdgeStyle;rounded=0;orthogonalLoop=1;jettySize=auto;html=1;entryX=0.5;entryY=1;entryDx=0;entryDy=0;" edge="1" parent="1" source="dkxZgwjoW6DD-DiOGa8r-39" target="dkxZgwjoW6DD-DiOGa8r-41">
          <mxGeometry relative="1" as="geometry" />
        </mxCell>
        <mxCell id="dkxZgwjoW6DD-DiOGa8r-69" value="召回" style="edgeLabel;html=1;align=center;verticalAlign=middle;resizable=0;points=[];" vertex="1" connectable="0" parent="dkxZgwjoW6DD-DiOGa8r-68">
          <mxGeometry x="0.0182" relative="1" as="geometry">
            <mxPoint as="offset" />
          </mxGeometry>
        </mxCell>
        <mxCell id="dkxZgwjoW6DD-DiOGa8r-39" value="召回" style="html=1;dashed=0;whitespace=wrap;fillColor=#f8cecc;strokeColor=#b85450;" vertex="1" parent="1">
          <mxGeometry x="565" y="200" width="100" height="50" as="geometry" />
        </mxCell>
        <mxCell id="dkxZgwjoW6DD-DiOGa8r-41" value="&lt;article class=&quot;4ever-article&quot;&gt;&lt;article class=&quot;4ever-article&quot;&gt;&lt;p style=&quot;text-align: left ; margin-left: 0px&quot;&gt;投放解决方案&lt;/p&gt;&lt;/article&gt;&lt;/article&gt;" style="html=1;dashed=0;whitespace=wrap;fillColor=#f8cecc;strokeColor=#b85450;" vertex="1" parent="1">
          <mxGeometry x="565" y="60" width="100" height="50" as="geometry" />
        </mxCell>
        <mxCell id="dkxZgwjoW6DD-DiOGa8r-50" style="edgeStyle=orthogonalEdgeStyle;rounded=0;orthogonalLoop=1;jettySize=auto;html=1;entryX=0;entryY=0.75;entryDx=0;entryDy=0;" edge="1" parent="1" source="dkxZgwjoW6DD-DiOGa8r-48" target="dkxZgwjoW6DD-DiOGa8r-41">
          <mxGeometry relative="1" as="geometry" />
        </mxCell>
        <mxCell id="dkxZgwjoW6DD-DiOGa8r-65" value="资源位/排期命中&lt;br&gt;判定" style="edgeLabel;html=1;align=center;verticalAlign=middle;resizable=0;points=[];" vertex="1" connectable="0" parent="dkxZgwjoW6DD-DiOGa8r-50">
          <mxGeometry x="0.0845" y="1" relative="1" as="geometry">
            <mxPoint as="offset" />
          </mxGeometry>
        </mxCell>
        <mxCell id="dkxZgwjoW6DD-DiOGa8r-48" value="Tair（资源位/排期）" style="shape=cylinder;whiteSpace=wrap;html=1;boundedLbl=1;backgroundOutline=1;fillColor=#fff2cc;strokeColor=#d6b656;" vertex="1" parent="1">
          <mxGeometry x="397.5" y="190" width="65" height="50" as="geometry" />
        </mxCell>
      </root>
    </mxGraphModel>
  </diagram>
</mxfile>
